<?xml version="1.0" encoding="UTF-8"?>
<svg version="1.1" xmlns="http://www.w3.org/2000/svg" width="1024" height="1024">
<path d="M0 0 C337.92 0 675.84 0 1024 0 C1024 337.92 1024 675.84 1024 1024 C686.08 1024 348.16 1024 0 1024 C0 686.08 0 348.16 0 0 Z " fill="#F1F5F9" transform="translate(0,0)"/>
<path d="M0 0 C25.801875 -0.0825 51.60375 -0.165 78.1875 -0.25 C86.31785889 -0.28641602 94.44821777 -0.32283203 102.82495117 -0.36035156 C112.79553223 -0.37841797 112.79553223 -0.37841797 117.47138977 -0.3817749 C120.71926427 -0.38548363 123.96687408 -0.40040134 127.2146759 -0.42230225 C131.3711575 -0.44995477 135.52726009 -0.45792525 139.68382514 -0.4522891 C141.20069877 -0.4534658 142.71758711 -0.46126937 144.23438108 -0.47686052 C159.4925187 -0.62627864 173.30419687 2.62889448 184.75 13.25 C200.45614912 30.24656043 200.91663786 53.6866339 200.22216797 75.52929688 C199.29187968 90.06224007 194.3985103 103.09020434 183.8125 113.3125 C177.09631104 118.87701649 169.66990507 122.33672796 161.28857422 124.58276367 C160.29816132 124.84925217 159.30774841 125.11574066 158.287323 125.39030457 C157.53250641 125.59150406 156.77768982 125.79270355 156 126 C159.98309939 132.0468538 163.96671998 138.093364 167.95068359 144.13964844 C169.30268842 146.19165481 170.65457893 148.24373652 172.00634766 150.29589844 C183.90032981 168.3680985 183.90032981 168.3680985 195.93359375 186.34765625 C196.35447266 186.97220703 196.77535156 187.59675781 197.20898438 188.24023438 C198.05283595 189.49192519 198.89933636 190.74183306 199.74804688 191.99023438 C201.53189472 194.64506896 202.98318109 196.94954327 204 200 C196.24680559 200.45916662 188.49713821 200.77262978 180.73339844 200.98876953 C178.09795226 201.07890063 175.46339683 201.2014652 172.83105469 201.35791016 C151.63732343 202.58525341 151.63732343 202.58525341 145.70318604 198.36752319 C141.80323412 194.21224028 139.34820933 189.4264908 137.03881836 184.25646973 C135.63508098 181.207341 133.83761823 178.50010616 131.9609375 175.72265625 C130.76450304 173.83664878 129.56919526 171.9499261 128.375 170.0625 C122.57375921 160.94027963 116.64526263 151.91587745 110.625 142.9375 C105.53846903 135.35008799 100.49696082 127.74914212 95.71582031 119.96435547 C91.23732816 112.69505967 86.52214539 105.578424 81.82348633 98.45019531 C81.19853271 97.49854492 80.5735791 96.54689453 79.9296875 95.56640625 C79.36491699 94.70990479 78.80014648 93.85340332 78.21826172 92.97094727 C77 91 77 91 77 90 C77.72947845 89.99413376 78.45895691 89.98826752 79.21054077 89.98222351 C86.12420958 89.924041 93.03760872 89.85182046 99.95096397 89.76428509 C103.50423234 89.71977735 107.05739122 89.68047985 110.61083984 89.65356445 C114.7069906 89.62230043 118.80254695 89.56752129 122.8984375 89.51171875 C124.1592514 89.50532883 125.42006531 89.4989389 126.71908569 89.49235535 C139.16666832 89.38987376 139.16666832 89.38987376 149.5625 83.4375 C152.77846252 77.98434616 152.25989082 72.99997001 152.3125 66.75 C152.34150391 65.61691406 152.37050781 64.48382813 152.40039062 63.31640625 C152.44917451 56.91445962 152.41934121 52.80856759 148 48 C142.11068619 43.50552367 135.23828177 43.84504416 128.14892578 43.79467773 C127.26601805 43.78464501 126.38311031 43.77461229 125.4734478 43.76427555 C122.63076224 43.73302834 119.78806267 43.70817649 116.9453125 43.68359375 C115.18415893 43.66517759 113.42300972 43.64634023 111.66186523 43.6270752 C105.14962831 43.55878282 98.63730808 43.49863073 92.125 43.4375 C77.56375 43.293125 63.0025 43.14875 48 43 C48 82.27 48 121.54 48 162 C32.16 162 16.32 162 0 162 C0 108.54 0 55.08 0 0 Z " fill="#008DF7" transform="translate(76,404)"/>
<path d="M0 0 C63.90243902 0 63.90243902 0 76.875 11.5625 C77.57625 12.366875 78.2775 13.17125 79 14 C79.70125 14.763125 80.4025 15.52625 81.125 16.3125 C85.60106747 22.7281967 86.48554596 28.8282532 86.375 36.4375 C86.38660156 37.23220703 86.39820313 38.02691406 86.41015625 38.84570312 C86.36520084 48.05406955 83.85875317 55.11375365 77.5390625 61.84765625 C72.86989798 65.80567109 67.51320362 68.38627084 62 71 C69.19675782 81.6935272 76.53044256 92.23112243 84.34375 102.484375 C92 112.58386949 92 112.58386949 92 115 C69.4308269 117.99483494 69.4308269 117.99483494 62.62255859 113.39306641 C58.57293197 109.05351983 55.95392928 103.89777467 53.34863281 98.60498047 C51.2231854 94.4995272 48.55825507 90.81693594 45.875 87.0625 C44.99536537 85.78394666 44.11761278 84.50409541 43.2421875 83.22265625 C41.93623655 81.34563616 40.60064595 79.4874092 39.1953125 77.68359375 C38 76 38 76 38 74 C32.72 74 27.44 74 22 74 C22 87.2 22 100.4 22 114 C14.74 114 7.48 114 0 114 C0 76.38 0 38.76 0 0 Z " fill="#253340" transform="translate(325,450)"/>
<path d="M0 0 C7.26 0 14.52 0 22 0 C22.495 19.8 22.495 19.8 23 40 C25.31 38.02 27.62 36.04 30 34 C38.36910057 29.35601838 47.68812738 28.5890126 56.953125 30.66015625 C68.99322132 34.54460073 76.62994326 42.49261143 82.3203125 53.5703125 C87.03616201 65.14557949 86.81037473 79.86888008 83 91.6875 C78.57064974 102.14672205 72.21920359 109.06544166 62 114 C61.27554688 114.37253906 60.55109375 114.74507812 59.8046875 115.12890625 C51.32979432 117.76108059 39.02067091 117.63644805 31 113.8125 C27.6213636 111.72323721 25.13545955 109.39732201 23 106 C22.67 108.97 22.34 111.94 22 115 C14.74 115 7.48 115 0 115 C0 77.05 0 39.1 0 0 Z " fill="#263441" transform="translate(779,450)"/>
<path d="M0 0 C5.80294608 4.58236206 9.3892586 10.5686095 11.19140625 17.73046875 C11.59379467 22.36960865 11.54106042 26.98316837 11.484375 31.63671875 C11.47876942 32.97049479 11.47450388 34.30427706 11.47151184 35.63806152 C11.46013852 39.12338765 11.43073794 42.60832987 11.3973999 46.09350586 C11.36653535 49.65994068 11.35297175 53.22643844 11.33789062 56.79296875 C11.30585945 63.7723076 11.25315453 70.75133013 11.19140625 77.73046875 C4.26140625 77.73046875 -2.66859375 77.73046875 -9.80859375 77.73046875 C-10.30359375 73.77046875 -10.30359375 73.77046875 -10.80859375 69.73046875 C-11.42734375 70.47296875 -12.04609375 71.21546875 -12.68359375 71.98046875 C-18.36134541 77.7070263 -27.53833593 79.84480311 -35.37109375 80.04296875 C-43.91256494 79.9492209 -52.09717038 77.57558738 -58.37109375 71.54296875 C-63.35052298 65.26455798 -64.43001073 58.26844076 -64.12890625 50.4296875 C-63.25501114 43.06552258 -58.70175928 39.12967919 -53.24609375 34.60546875 C-41.18212172 28.02512037 -24.37031404 27.43954076 -10.80859375 27.73046875 C-11.2395614 20.21456195 -11.2395614 20.21456195 -14.80859375 13.73046875 C-20.03643169 10.28595871 -26.84068296 11.03833235 -32.80859375 11.73046875 C-37.22500995 14.70305657 -37.79228751 16.68970315 -39.80859375 21.73046875 C-47.06859375 21.73046875 -54.32859375 21.73046875 -61.80859375 21.73046875 C-60.78160597 12.48757874 -59.52990709 8.19389523 -52.94921875 1.97265625 C-37.62843022 -10.22269142 -16.37271023 -10.64357567 0 0 Z " fill="#263442" transform="translate(752.80859375,487.26953125)"/>
<path d="M0 0 C6.35945104 4.61761611 9.90206232 10.8629786 12.0625 18.3125 C12.30300903 21.31185913 12.30300903 21.31185913 12.28955078 24.50146484 C12.28939972 25.70225677 12.28924866 26.90304871 12.28909302 28.14022827 C12.27877045 29.42168732 12.26844788 30.70314636 12.2578125 32.0234375 C12.2540779 33.36007474 12.25123304 34.69671474 12.24923706 36.03335571 C12.24163577 39.53505132 12.22201788 43.0365785 12.1998291 46.53820801 C12.17929474 50.11789675 12.17021918 53.69761296 12.16015625 57.27734375 C12.13876827 64.28913826 12.1036151 71.30079368 12.0625 78.3125 C5.1325 78.3125 -1.7975 78.3125 -8.9375 78.3125 C-9.4325 74.8475 -9.4325 74.8475 -9.9375 71.3125 C-10.39898437 71.71082031 -10.86046875 72.10914063 -11.3359375 72.51953125 C-18.78252765 78.56804618 -26.39955149 80.96407652 -36 80.6640625 C-44.1325598 79.69075082 -52.44262534 77.63160586 -57.9375 71.3125 C-62.7603143 64.31039261 -64.15932617 57.72564593 -62.9375 49.3125 C-61.11863952 42.68100246 -56.66102929 37.94634008 -50.9375 34.3125 C-38.4236653 28.36147639 -22.59120778 28.08681888 -8.9375 28.3125 C-9.93251835 22.42094395 -11.09649092 17.96826858 -14.9375 13.3125 C-18.2536619 12.2071127 -20.82286635 12.14496358 -24.3125 12.125 C-25.99472656 12.10373047 -25.99472656 12.10373047 -27.7109375 12.08203125 C-30.93717743 12.31247696 -33.10285499 12.77237699 -35.9375 14.3125 C-37.25435277 17.2627491 -37.25435277 17.2627491 -37.9375 20.3125 C-38.2675 20.9725 -38.5975 21.6325 -38.9375 22.3125 C-46.1975 22.3125 -53.4575 22.3125 -60.9375 22.3125 C-58.90764351 12.16321756 -57.1955343 6.07047312 -48.8125 0 C-33.35123882 -9.26643199 -15.52665423 -9.3211854 0 0 Z " fill="#263441" transform="translate(487.9375,486.6875)"/>
<path d="M0 0 C7.1700051 5.19084667 11.07651023 11.07293195 13.55078125 19.5234375 C13.79129028 22.52279663 13.79129028 22.52279663 13.77783203 25.71240234 C13.77768097 26.91319427 13.77752991 28.11398621 13.77737427 29.35116577 C13.7670517 30.63262482 13.75672913 31.91408386 13.74609375 33.234375 C13.74235915 34.57101224 13.73951429 35.90765224 13.73751831 37.24429321 C13.72991702 40.74598882 13.71029913 44.247516 13.68811035 47.74914551 C13.66757599 51.32883425 13.65850043 54.90855046 13.6484375 58.48828125 C13.62704952 65.50007576 13.59189635 72.51173118 13.55078125 79.5234375 C6.62078125 79.5234375 -0.30921875 79.5234375 -7.44921875 79.5234375 C-7.45856445 77.99009766 -7.46791016 76.45675781 -7.47753906 74.87695312 C-7.51753101 69.16637549 -7.58331662 63.45633135 -7.65673828 57.74609375 C-7.68489435 55.27871576 -7.70613543 52.81124847 -7.72021484 50.34375 C-7.74171777 46.78859924 -7.78840893 43.23451611 -7.83984375 39.6796875 C-7.84107239 38.58354126 -7.84230103 37.48739502 -7.84356689 36.35803223 C-7.97075087 29.64703154 -8.86709484 25.24370908 -12.44921875 19.5234375 C-16.25949883 16.26667784 -19.5288284 16.11662463 -24.44921875 16.1484375 C-25.64546875 16.14070313 -26.84171875 16.13296875 -28.07421875 16.125 C-31.95211151 16.58280678 -33.51968442 16.93118508 -36.44921875 19.5234375 C-41.22089314 26.73577373 -42.18767067 33.15561069 -42.15625 41.65625 C-42.17137131 42.77409882 -42.18649261 43.89194763 -42.20207214 45.04367065 C-42.24471421 48.57880192 -42.25376491 52.11307542 -42.26171875 55.6484375 C-42.28488115 58.05991827 -42.31025007 60.47137891 -42.33789062 62.8828125 C-42.40462447 68.76347979 -42.4258283 74.64180322 -42.44921875 80.5234375 C-49.70921875 80.5234375 -56.96921875 80.5234375 -64.44921875 80.5234375 C-64.44921875 53.1334375 -64.44921875 25.7434375 -64.44921875 -2.4765625 C-57.18921875 -2.4765625 -49.92921875 -2.4765625 -42.44921875 -2.4765625 C-42.11921875 0.1634375 -41.78921875 2.8034375 -41.44921875 5.5234375 C-40.52109375 4.6159375 -39.59296875 3.7084375 -38.63671875 2.7734375 C-27.81024413 -6.41926329 -12.0891747 -7.28821059 0 0 Z " fill="#263442" transform="translate(579.44921875,484.4765625)"/>
<path d="M0 0 C4.28499397 3.43684542 6.84242622 7.96610245 9.26953125 12.8203125 C9.26953125 15.1303125 9.26953125 17.4403125 9.26953125 19.8203125 C2.66953125 19.8203125 -3.93046875 19.8203125 -10.73046875 19.8203125 C-11.39046875 18.1703125 -12.05046875 16.5203125 -12.73046875 14.8203125 C-16.69411664 10.85666461 -19.78427643 10.5203728 -25.35546875 10.3828125 C-28.83607227 10.38686915 -31.03821021 10.43521503 -34.08984375 12.1328125 C-36.06621403 13.85189039 -36.06621403 13.85189039 -36.35546875 17.2578125 C-36.09556867 20.94823461 -36.09556867 20.94823461 -33.32421875 22.89453125 C-29.08733469 25.49571976 -24.42130773 26.22664874 -19.60546875 27.1953125 C-7.19330025 29.92495952 2.84108188 33.33785526 10.58203125 44.0078125 C13.30242719 49.09473173 13.0296068 54.51690723 11.76171875 60.02734375 C8.9371847 68.51717885 3.87359354 72.60126883 -3.9140625 76.5625 C-15.60403746 81.78326552 -29.85586658 81.30065885 -41.73046875 76.8203125 C-48.76189519 73.24501092 -54.36216043 68.23397801 -58.10546875 61.2578125 C-58.73046875 58.8203125 -58.73046875 58.8203125 -58.73046875 52.8203125 C-52.13046875 52.8203125 -45.53046875 52.8203125 -38.73046875 52.8203125 C-37.74046875 54.8003125 -36.75046875 56.7803125 -35.73046875 58.8203125 C-31.4452768 62.44624415 -26.46341297 63.3414978 -20.984375 63.09375 C-17.44638125 62.66453065 -14.15173147 61.81558893 -10.73046875 60.8203125 C-9.56517415 55.49265809 -9.56517415 55.49265809 -10.85546875 50.4453125 C-14.96902913 46.88022683 -20.01664807 46.34252514 -25.23046875 45.5078125 C-36.15802547 43.57439828 -47.40794281 40.78409425 -54.73046875 31.8203125 C-58.63146969 25.33376442 -58.61743149 19.20322142 -57.73046875 11.8203125 C-55.33114761 5.0595587 -49.65975199 -0.09869655 -43.421875 -3.40234375 C-28.93645001 -10.03852367 -13.41199287 -8.40625695 0 0 Z " fill="#253341" transform="translate(928.73046875,487.1796875)"/>
<path d="M0 0 C7.26 0 14.52 0 22 0 C22 31.35 22 62.7 22 95 C37.18 95 52.36 95 68 95 C68 101.6 68 108.2 68 115 C45.56 115 23.12 115 0 115 C0 77.05 0 39.1 0 0 Z " fill="#283644" transform="translate(612,450)"/>
<path d="M0 0 C5.4637769 2.7920622 8.4239286 7.70844606 11.0234375 13.03125 C13.05001756 22.7956812 12.10512176 32.56106571 7.0234375 41.21875 C1.06007261 46.69859881 -4.47258634 47.98585315 -12.52734375 47.65234375 C-19.17937635 46.90904732 -22.72070072 43.42389142 -26.80859375 38.43359375 C-31.36875633 31.99642493 -30.88884959 23.91606206 -30.2890625 16.34375 C-29.09797948 10.61166299 -26.36781418 6.42250168 -22.2890625 2.34375 C-15.53823141 -1.70674865 -7.57624671 -2.17202977 0 0 Z " fill="#EFF3F7" transform="translate(830.2890625,500.65625)"/>
<path d="M0 0 C3.75375 -0.061875 7.5075 -0.12375 11.375 -0.1875 C13.11789307 -0.22846802 13.11789307 -0.22846802 14.89599609 -0.27026367 C22.09984537 -0.32710721 30.33568659 -0.29733773 35.97216797 4.7746582 C40.30230109 9.64256807 41.29896801 12.9169633 41.21484375 19.39453125 C40.8127606 24.27070331 39.28865332 27.59419638 35.9375 31.25 C28.02140982 35.96596862 19.8907578 36.40939211 10.875 36.1875 C7.28625 36.125625 3.6975 36.06375 0 36 C0 24.12 0 12.24 0 0 Z " fill="#EFF2F7" transform="translate(347,469)"/>
<path d="M0 0 C0.71478516 -0.01224609 1.42957031 -0.02449219 2.16601562 -0.03710938 C4.00802524 -0.0423177 5.84958123 0.06469456 7.6875 0.1875 C10.33003109 2.83003109 9.92375334 4.74313424 9.93634033 8.33824158 C9.92914978 9.20066971 9.92195923 10.06309784 9.91455078 10.95166016 C9.91484283 11.85903427 9.91513489 12.76640839 9.91543579 13.70127869 C9.91403898 16.70980286 9.89846128 19.71808142 9.8828125 22.7265625 C9.87908362 24.80878565 9.87623606 26.89101055 9.87423706 28.97323608 C9.86659077 34.46090517 9.84693375 39.94846884 9.8248291 45.43609619 C9.8008006 52.01645733 9.79159443 58.59685366 9.77992249 65.17724609 C9.76050993 75.18073744 9.72219423 85.18399737 9.6875 95.1875 C24.2075 95.1875 38.7275 95.1875 53.6875 95.1875 C53.6875 95.5175 53.6875 95.8475 53.6875 96.1875 C38.5592197 98.70888005 23.02445609 97.1875 7.6875 97.1875 C7.6875 65.8375 7.6875 34.4875 7.6875 2.1875 C0.4275 2.1875 -6.8325 2.1875 -14.3125 2.1875 C-14.3125 40.1375 -14.3125 78.0875 -14.3125 117.1875 C8.1275 117.1875 30.5675 117.1875 53.6875 117.1875 C53.6875 110.9175 53.6875 104.6475 53.6875 98.1875 C54.0175 98.1875 54.3475 98.1875 54.6875 98.1875 C54.6875 104.7875 54.6875 111.3875 54.6875 118.1875 C45.57790511 118.2100528 36.46832863 118.22841611 27.3587122 118.23931217 C23.12918629 118.24454056 18.8996804 118.2516374 14.67016602 118.26293945 C10.59181457 118.27376991 6.51348243 118.27977717 2.43511772 118.28237724 C0.87572361 118.28423121 -0.6836694 118.28785127 -2.24305534 118.29323006 C-4.41979162 118.30044262 -6.59644714 118.30149085 -8.77319336 118.30102539 C-10.63517616 118.30435631 -10.63517616 118.30435631 -12.53477478 118.30775452 C-15.3125 118.1875 -15.3125 118.1875 -16.3125 117.1875 C-16.41038264 115.69698732 -16.43881782 114.20185295 -16.43948364 112.70812988 C-16.44230347 111.74057266 -16.44512329 110.77301544 -16.44802856 109.77613831 C-16.44600433 108.7059697 -16.4439801 107.63580109 -16.44189453 106.53320312 C-16.44364685 105.41300278 -16.44539917 104.29280243 -16.44720459 103.13865662 C-16.45162577 99.41533891 -16.44868417 95.69206824 -16.4453125 91.96875 C-16.44598546 89.39424633 -16.44695542 86.81974271 -16.44821167 84.24523926 C-16.449689 78.84138325 -16.44762754 73.4375451 -16.44287109 68.03369141 C-16.4374285 61.77788528 -16.43919117 55.52211174 -16.4446975 49.2663064 C-16.44977434 43.2589895 -16.44924708 37.2516886 -16.44631577 31.24436951 C-16.44564623 28.68297827 -16.44647584 26.1215862 -16.44879532 23.56019592 C-16.45132027 19.98737347 -16.44748346 16.41461457 -16.44189453 12.84179688 C-16.44391876 11.77162827 -16.44594299 10.70145966 -16.44802856 9.59886169 C-16.44520874 8.63130447 -16.44238892 7.66374725 -16.43948364 6.66687012 C-16.43910662 5.82104118 -16.43872959 4.97521225 -16.43834114 4.10375214 C-16.3125 2.1875 -16.3125 2.1875 -15.3125 1.1875 C-10.18252782 0.25896845 -5.19262478 0.00481244 0 0 Z " fill="#FCFCFD" transform="translate(626.3125,447.8125)"/>
<path d="M0 0 C1.07314453 0.00322266 2.14628906 0.00644531 3.25195312 0.00976562 C4.37150391 0.01814453 5.49105469 0.02652344 6.64453125 0.03515625 C8.34125977 0.04192383 8.34125977 0.04192383 10.07226562 0.04882812 C12.86724052 0.06062127 15.66210945 0.07707975 18.45703125 0.09765625 C18.1629461 1.5297641 17.8621581 2.96049646 17.55859375 4.390625 C17.39182129 5.18750732 17.22504883 5.98438965 17.05322266 6.80541992 C15.7695918 11.74072298 13.27711133 14.90032641 8.95703125 17.47265625 C3.72993404 19.8165141 -1.93300185 19.95656153 -7.54296875 19.09765625 C-12.21180596 16.75998183 -12.21180596 16.75998183 -13.54296875 14.09765625 C-14.24245674 6.98619504 -14.24245674 6.98619504 -11.23046875 3.16015625 C-7.38938871 0.21235064 -4.70440623 -0.02489104 0 0 Z " fill="#F0F4F7" transform="translate(460.54296875,530.90234375)"/>
<path d="M0 0 C1.02802734 0.00322266 2.05605469 0.00644531 3.11523438 0.00976562 C4.72301758 0.02233398 4.72301758 0.02233398 6.36328125 0.03515625 C7.44673828 0.03966797 8.53019531 0.04417969 9.64648438 0.04882812 C12.3229721 0.06061882 14.99934902 0.07707562 17.67578125 0.09765625 C17.54916307 1.52932861 17.41323398 2.96017932 17.2734375 4.390625 C17.19875244 5.18750732 17.12406738 5.98438965 17.04711914 6.80541992 C16.35991877 11.04744774 14.42399468 13.74542369 11.0546875 16.3515625 C5.38317267 19.73560565 -0.87564097 20.08495574 -7.32421875 19.09765625 C-11.99305596 16.75998183 -11.99305596 16.75998183 -13.32421875 14.09765625 C-14.02370674 6.98619504 -14.02370674 6.98619504 -11.01171875 3.16015625 C-7.24015452 0.26569998 -4.61742848 -0.02551065 0 0 Z " fill="#F0F4F8" transform="translate(724.32421875,530.90234375)"/>
<path d="M0 0 C7.26 0 14.52 0 22 0 C22 31.35 22 62.7 22 95 C36.85 95 51.7 95 67 95 C67 95.33 67 95.66 67 96 C51.82 96 36.64 96 21 96 C19.91749623 91.66998491 19.86725408 87.70635472 19.88647461 83.28417969 C19.88632858 82.40577423 19.88618256 81.52736877 19.8860321 80.62234497 C19.88672815 77.7221631 19.89450614 74.82204564 19.90234375 71.921875 C19.90420902 69.90977005 19.90563241 67.89766465 19.90663147 65.88555908 C19.91044802 60.59194686 19.92027098 55.29836211 19.93133545 50.00476074 C19.94156808 44.60213594 19.94613306 39.1995067 19.95117188 33.796875 C19.961894 23.19790266 19.97948385 12.59895791 20 2 C14.06 2 8.12 2 2 2 C2 38.63 2 75.26 2 113 C1.67 113 1.34 113 1 113 C0.02506026 99.76891177 -0.13237883 86.60276307 -0.09765625 73.33984375 C-0.0957861 71.21179742 -0.09436502 69.08375065 -0.09336853 66.95570374 C-0.08959033 61.41403977 -0.07980144 55.87240292 -0.06866455 50.33074951 C-0.05834817 44.65214403 -0.05384922 38.97353407 -0.04882812 33.29492188 C-0.03817389 22.19660088 -0.02061644 11.09830696 0 0 Z " fill="#0E1C29" transform="translate(612,450)"/>
<path d="M0 0 C6.93 0 13.86 0 21 0 C21 3.63 21 7.26 21 11 C20.67 11 20.34 11 20 11 C20 7.7 20 4.4 20 1 C14.06 1 8.12 1 2 1 C2 27.4 2 53.8 2 81 C8.27 81 14.54 81 21 81 C21 64.83 21 48.66 21 32 C21.33 32 21.66 32 22 32 C22 48.83 22 65.66 22 83 C14.74 83 7.48 83 0 83 C0 55.61 0 28.22 0 0 Z " fill="#182532" transform="translate(515,482)"/>
<path d="M0 0 C0.33 0 0.66 0 1 0 C1 6.6 1 13.2 1 20 C-21.44 20 -43.88 20 -67 20 C-67 13.73 -67 7.46 -67 1 C-66.67 1 -66.34 1 -66 1 C-66 6.61 -66 12.22 -66 18 C-44.55 18 -23.1 18 -1 18 C-1 12.39 -1 6.78 -1 1 C-0.67 0.67 -0.34 0.34 0 0 Z " fill="#202D3A" transform="translate(679,545)"/>
<path d="M0 0 C8.32321429 4.2465379 13.7534621 9.67678571 18 18 C14.55594784 16.85198261 14.11496789 16.08639917 12.125 13.1875 C9.13156147 9.03817927 5.86053593 6.30740363 1.6875 3.375 C1.130625 2.92125 0.57375 2.4675 0 2 C0 1.34 0 0.68 0 0 Z " fill="#1383F7" transform="translate(250,410)"/>
<path d="M0 0 C0.99 0 1.98 0 3 0 C3 3.63 3 7.26 3 11 C0 8 0 8 -0.29296875 5.95703125 C-0.1953125 3.97135417 -0.09765625 1.98567708 0 0 Z " fill="#E7EBED" transform="translate(447,537)"/>
<path d="M0 0 C0.66 0.33 1.32 0.66 2 1 C0.74057614 2.19959375 -0.53295286 3.38439443 -1.8125 4.5625 C-2.87404297 5.55443359 -2.87404297 5.55443359 -3.95703125 6.56640625 C-4.63121094 7.03949219 -5.30539062 7.51257813 -6 8 C-6.99 7.67 -7.98 7.34 -9 7 C-7.87720538 6.01830524 -6.75168527 5.03972702 -5.625 4.0625 C-4.68527344 3.24458984 -4.68527344 3.24458984 -3.7265625 2.41015625 C-2 1 -2 1 0 0 Z " fill="#14202D" transform="translate(706,485)"/>
<path d="M0 0 C-0.66 1.32 -1.32 2.64 -2 4 C-2.99 3.67 -3.98 3.34 -5 3 C-5.33 3.66 -5.66 4.32 -6 5 C-7.32 4.67 -8.64 4.34 -10 4 C-8.66666667 3.33333333 -7.33333333 2.66666667 -6 2 C-5.29875 1.62875 -4.5975 1.2575 -3.875 0.875 C-2 0 -2 0 0 0 Z " fill="#E9ECEF" transform="translate(737,562)"/>
</svg>
